<svg height="512" viewBox="0 0 512 512" width="512" xmlns="http://www.w3.org/2000/svg"><g><g><g><g><path d="m56 424h-20a20 20 0 0 1 -20-20v-208a20 20 0 0 1 20-20h384a20 20 0 0 1 17.647 10.588l58.353 109.412v108a20 20 0 0 1 -20 20h-20" fill="#d80027"/><circle cx="104" cy="424" fill="#2d2d30" r="48"/><circle cx="408" cy="424" fill="#2d2d30" r="48"/><circle cx="104" cy="424" fill="#e0e0e2" r="16"/><circle cx="408" cy="424" fill="#e0e0e2" r="16"/><path d="m449.07 208h-89.07v88h136" fill="#5aaae7"/><g fill="#ffda44"><path d="m472 328h24a0 0 0 0 1 0 0v32a0 0 0 0 1 0 0h-24a16 16 0 0 1 -16-16 16 16 0 0 1 16-16z"/><path d="m32 328h24a0 0 0 0 1 0 0v32a0 0 0 0 1 0 0h-24a16 16 0 0 1 -16-16 16 16 0 0 1 16-16z" transform="matrix(-1 0 0 -1 72 688)"/></g></g><g fill="#5aaae7"><path d="m16 208h72v88h-72z"/><path d="m120 208h208v88h-208z"/></g></g><path d="m32 112h384a32 32 0 0 1 32 32 0 0 0 0 1 0 0h-384a32 32 0 0 1 -32-32 0 0 0 0 1 0 0z" fill="#ff5023"/><path d="m72 64a48 48 0 0 1 48 48 0 0 0 0 1 0 0h-48a0 0 0 0 1 0 0v-48a0 0 0 0 1 0 0z" fill="#ffda44"/></g><g><path d="m104 400a24 24 0 1 0 24 24 24.027 24.027 0 0 0 -24-24zm0 32a8 8 0 1 1 8-8 8.009 8.009 0 0 1 -8 8z"/><path d="m408 400a24 24 0 1 0 24 24 24.027 24.027 0 0 0 -24-24zm0 32a8 8 0 1 1 8-8 8.009 8.009 0 0 1 -8 8z"/><path d="m503.06 292.24-58.35-109.42a27.966 27.966 0 0 0 -24.71-14.82h-60v-16h88a8 8 0 0 0 8-8 40.04 40.04 0 0 0 -40-40h-288.58a56.086 56.086 0 0 0 -55.42-48 8 8 0 0 0 -8 8v40h-32a8 8 0 0 0 -8 8 40.04 40.04 0 0 0 40 40h32v16h-60a28.031 28.031 0 0 0 -28 28v208a28.031 28.031 0 0 0 28 28h12.58a55.994 55.994 0 0 0 110.84 0h193.16a55.994 55.994 0 0 0 110.84 0h12.58a28.031 28.031 0 0 0 28-28v-108a7.94 7.94 0 0 0 -.94-3.76zm-58.79-76.24 38.4 72h-114.67v-72zm-364.27-143.2a40.133 40.133 0 0 1 31.2 31.2h-31.2zm-16 63.2a24.044 24.044 0 0 1 -22.63-16h374.63a24.044 24.044 0 0 1 22.63 16zm280 16v16h-232v-16zm-320 64h56v8h-56zm0 24h56v48h-56zm0 96h16a8 8 0 0 1 0 16h-16zm80 128a40 40 0 1 1 40-40 40.04 40.04 0 0 1 -40 40zm304 0a40 40 0 1 1 40-40 40.04 40.04 0 0 1 -40 40zm80-112h-16a8 8 0 0 1 0-16h16zm0-32h-16a24 24 0 0 0 0 48h16v36a12.01 12.01 0 0 1 -12 12h-12.58a55.994 55.994 0 0 0 -110.84 0h-193.16a55.994 55.994 0 0 0 -110.84 0h-12.58a12.01 12.01 0 0 1 -12-12v-36h16a24 24 0 0 0 0-48h-16v-16h64a8 8 0 0 0 8-8v-88a8 8 0 0 0 -8-8h-64v-4a12.01 12.01 0 0 1 12-12h384a11.977 11.977 0 0 1 10.59 6.35l5.14 9.65h-75.73a8 8 0 0 0 -8 8v88a8 8 0 0 0 8 8h128z"/><path d="m384 312h-24a8 8 0 0 0 0 16h24a8 8 0 0 0 0-16z"/><path d="m328 200h-208a8 8 0 0 0 -8 8v88a8 8 0 0 0 8 8h208a8 8 0 0 0 8-8v-88a8 8 0 0 0 -8-8zm-8 16v8h-192v-8zm-192 72v-48h192v48z"/><path d="m288 368h-112a8 8 0 0 0 0 16h112a8 8 0 0 0 0-16z"/><path d="m208 392h-32a8 8 0 0 0 0 16h32a8 8 0 0 0 0-16z"/></g></g></svg>