<?xml version="1.0"?>
<svg xmlns="http://www.w3.org/2000/svg" width="512" height="512" viewBox="0 0 512 512"><g><path d="M104,400a24,24,0,1,0,24,24A24.027,24.027,0,0,0,104,400Zm0,32a8,8,0,1,1,8-8A8.009,8.009,0,0,1,104,432Z"/><path d="M408,400a24,24,0,1,0,24,24A24.027,24.027,0,0,0,408,400Zm0,32a8,8,0,1,1,8-8A8.009,8.009,0,0,1,408,432Z"/><path d="M503.06,292.24,444.71,182.82A27.966,27.966,0,0,0,420,168H360V152h88a8,8,0,0,0,8-8,40.04,40.04,0,0,0-40-40H127.42A56.086,56.086,0,0,0,72,56a8,8,0,0,0-8,8v40H32a8,8,0,0,0-8,8,40.04,40.04,0,0,0,40,40H96v16H36A28.031,28.031,0,0,0,8,196V404a28.031,28.031,0,0,0,28,28H48.58a55.994,55.994,0,0,0,110.84,0H352.58a55.994,55.994,0,0,0,110.84,0H476a28.031,28.031,0,0,0,28-28V296A7.94,7.94,0,0,0,503.06,292.24ZM444.27,216l38.4,72H368V216ZM80,72.8A40.133,40.133,0,0,1,111.2,104H80ZM64,136a24.044,24.044,0,0,1-22.63-16H416a24.044,24.044,0,0,1,22.63,16Zm280,16v16H112V152ZM24,216H80v8H24Zm0,24H80v48H24Zm0,96H40a8,8,0,0,1,0,16H24Zm80,128a40,40,0,1,1,40-40A40.04,40.04,0,0,1,104,464Zm304,0a40,40,0,1,1,40-40A40.04,40.04,0,0,1,408,464Zm80-112H472a8,8,0,0,1,0-16h16Zm0-32H472a24,24,0,0,0,0,48h16v36a12.01,12.01,0,0,1-12,12H463.42a55.994,55.994,0,0,0-110.84,0H159.42a55.994,55.994,0,0,0-110.84,0H36a12.01,12.01,0,0,1-12-12V368H40a24,24,0,0,0,0-48H24V304H88a8,8,0,0,0,8-8V208a8,8,0,0,0-8-8H24v-4a12.01,12.01,0,0,1,12-12H420a11.977,11.977,0,0,1,10.59,6.35l5.14,9.65H360a8,8,0,0,0-8,8v88a8,8,0,0,0,8,8H488Z"/><path d="M384,312H360a8,8,0,0,0,0,16h24a8,8,0,0,0,0-16Z"/><path d="M328,200H120a8,8,0,0,0-8,8v88a8,8,0,0,0,8,8H328a8,8,0,0,0,8-8V208A8,8,0,0,0,328,200Zm-8,16v8H128v-8ZM128,288V240H320v48Z"/><path d="M288,368H176a8,8,0,0,0,0,16H288a8,8,0,0,0,0-16Z"/><path d="M208,392H176a8,8,0,0,0,0,16h32a8,8,0,0,0,0-16Z"/></g></svg>
